<svg xmlns="http://www.w3.org/2000/svg" width="20" height="20" viewBox="0 0 20 20">
    <path fill="#FFF" fill-rule="nonzero" d="M0 10.3c0 1.11.085 2.115.254 3.013.17.899.405 1.68.704 2.342a6.624 6.624 0 0 0 2.65 2.983 7.96 7.96 0 0 0 1.854.779c.694.2 1.404.34 2.127.42.724.08 1.52.119 2.387.119.873 0 1.672-.04 2.396-.12.723-.08 1.434-.22 2.132-.42.697-.199 1.318-.458 1.863-.778a6.672 6.672 0 0 0 2.67-2.983c.303-.662.54-1.443.709-2.342.17-.898.254-1.902.254-3.012 0-1.98-.541-3.694-1.623-5.14.058-.191.112-.409.161-.652.049-.244.095-.591.137-1.042a7.204 7.204 0 0 0-.05-1.564A9.69 9.69 0 0 0 18.21.094l-.146-.036c-.105-.024-.276-.018-.514.018a4.895 4.895 0 0 0-.831.216c-.316.108-.724.315-1.223.623-.499.307-1.025.693-1.58 1.156-.951-.32-2.258-.48-3.921-.48-1.656 0-2.96.16-3.912.48A13.23 13.23 0 0 0 4.493.915C3.99.607 3.587.4 3.287.292c-.3-.108-.58-.178-.841-.21-.26-.032-.426-.042-.494-.03a.816.816 0 0 0-.161.042 9.704 9.704 0 0 0-.416 1.81 7.209 7.209 0 0 0-.049 1.563c.043.45.088.798.137 1.042.049.243.103.461.161.653C.541 6.607 0 8.32 0 10.3zm2.455 3.008c0-1.15.427-2.205 1.28-3.163.255-.288.552-.505.89-.653a3.233 3.233 0 0 1 1.15-.252c.427-.02.836-.016 1.227.012.392.028.874.066 1.448.114s1.07.072 1.486.072c.418 0 .913-.024 1.487-.072.574-.048 1.056-.086 1.448-.114.39-.028.8-.032 1.227-.012.427.02.81.104 1.15.252.338.148.635.365.889.653.854.942 1.281 1.997 1.281 3.163 0 .686-.07 1.295-.21 1.826-.14.532-.32.977-.538 1.336-.219.36-.522.665-.91.916a5.77 5.77 0 0 1-1.134.582c-.368.135-.841.241-1.418.317-.577.076-1.092.122-1.545.138-.454.016-1.029.024-1.727.024-.697 0-1.273-.008-1.726-.024a16.413 16.413 0 0 1-1.545-.138c-.577-.076-1.05-.182-1.418-.317a5.772 5.772 0 0 1-1.135-.582 2.865 2.865 0 0 1-.909-.916c-.218-.36-.398-.804-.538-1.336-.14-.53-.21-1.14-.21-1.826zm10.045-.242c0 1.268.56 2.297 1.25 2.297S15 14.334 15 13.066c0-1.268-.56-2.297-1.25-2.297s-1.25 1.029-1.25 2.297zm-7.5 0c0 1.268.56 2.297 1.25 2.297s1.25-1.029 1.25-2.297c0-1.268-.56-2.297-1.25-2.297S5 11.798 5 13.066z"/>
</svg>
