<svg xmlns="http://www.w3.org/2000/svg" width="140" height="140" viewBox="0 0 140 140">
    <g fill="none" fill-rule="nonzero">
        <path fill="#F9F4A9" d="M9.647 57.284h119.068v79.524H9.647z"/>
        <path fill="#AF1F23" d="M15.108 62.477c-1.092 0-12.289 1.366-12.835-6.559-.546-7.925 18.843-43.178 18.843-43.178s-3.823-9.565 3.55-10.385c7.374-.82 89.848.274 89.848.274l4.37 10.384S138 46.08 137.727 46.9c-.273.82-.546 13.39-5.189 15.03-4.642 1.64-15.566-3.006-15.566-3.006l-4.643-1.64-11.196 4.92-10.651-5.466-10.104 4.646-12.017-4.1-11.743 4.646-9.558-4.646-9.831 4.646-10.924-4.646-11.197 5.193z"/>
        <path fill="#B0E2F6" d="M26.305 78.873h31.679v57.115H26.305z"/>
        <path fill="#C2E7F2" d="M81.47 78.327h31.952v29.514H81.47z"/>
        <g fill="#000">
            <path d="M113.75 116.484a2.742 2.742 0 0 0-2.734 2.735 2.742 2.742 0 0 0 2.734 2.734 2.742 2.742 0 0 0 2.734-2.734 2.742 2.742 0 0 0-2.734-2.735z"/>
            <path d="M121.953 12.96V8.204c0-4.512-3.691-8.203-8.203-8.203h-87.5c-4.512 0-8.203 3.691-8.203 8.203v4.758C.219 45.91 0 44.926 0 46.484v5.47c0 4.73 2.734 9.16 7.11 11.648v73.664A2.742 2.742 0 0 0 9.843 140h120.312a2.742 2.742 0 0 0 2.735-2.734V63.602c4.32-2.516 7.109-6.973 7.109-11.649v-5.469c0-1.558-.383-.902-18.047-33.523zm10.692 30.79h-16.926l-9.106-27.344h10.992l15.04 27.344zm-38.036 5.469h16.407v2.734c0 4.512-3.692 8.203-8.204 8.203-4.511 0-8.203-3.691-8.203-8.203V49.22zm-.41-5.469l-4.566-27.344h11.21l9.106 27.344H94.2zM23.516 8.203A2.742 2.742 0 0 1 26.25 5.47h87.5a2.742 2.742 0 0 1 2.734 2.734v2.735H23.516V8.203zM89.14 49.22v2.734c0 4.512-3.692 8.203-8.204 8.203-4.511 0-8.203-3.691-8.203-8.203V49.22h16.407zM72.734 43.75V16.406h11.348l4.566 27.344H72.734zm-21.382 0l4.566-27.344h11.348V43.75H51.352zm15.914 5.469v2.734c0 4.512-3.692 8.203-8.204 8.203-4.511 0-8.203-3.691-8.203-8.203V49.22h16.407zM30.05 43.75l9.105-27.344h11.211L45.801 43.75H30.05zm15.34 5.469v2.734c0 4.512-3.692 8.203-8.203 8.203-4.512 0-8.204-3.691-8.204-8.203V49.22h16.407zM22.395 16.406h10.992L24.28 43.75H7.355l15.04-27.344zM5.469 51.953V49.22h18.047v2.734c0 4.293-4.293 8.203-9.024 8.203a9.134 9.134 0 0 1-3.582-.738c-3.254-1.395-5.441-4.402-5.441-7.465zm50.86 82.578H28.983v-23.515h27.344v23.515zm0-28.984H28.983V82.03h27.344v23.516zm71.093 28.984H61.797V79.297a2.742 2.742 0 0 0-2.734-2.734H26.25a2.742 2.742 0 0 0-2.734 2.734v55.234H12.578V65.488c.629.082 1.285.137 1.914.137 3.61 0 7.246-1.422 9.98-3.91a16.386 16.386 0 0 0 1.641-1.75c2.489 3.418 6.535 5.66 11.075 5.66 4.457 0 8.449-2.16 10.937-5.469a13.62 13.62 0 0 0 10.938 5.469c4.457 0 8.449-2.16 10.937-5.469a13.62 13.62 0 0 0 10.938 5.469c4.457 0 8.449-2.16 10.937-5.469a13.62 13.62 0 0 0 10.938 5.469c4.539 0 8.585-2.242 11.074-5.66.492.629 1.039 1.203 1.64 1.75 2.735 2.488 6.371 3.91 9.98 3.91.63 0 1.286-.055 1.915-.137v69.043zm7.11-82.578c0 3.145-2.27 6.18-5.66 7.547a9.086 9.086 0 0 1-3.364.656c-4.73 0-9.024-3.91-9.024-8.203V49.22h18.047v2.734z"/>
            <path d="M119.219 105.547h-2.735v-26.25a2.742 2.742 0 0 0-2.734-2.734H80.937a2.742 2.742 0 0 0-2.734 2.734v26.25H75.47a2.742 2.742 0 0 0-2.735 2.734 2.742 2.742 0 0 0 2.735 2.735h43.75a2.742 2.742 0 0 0 2.734-2.735 2.742 2.742 0 0 0-2.734-2.734zm-8.203 0H83.672V82.03h27.344v23.516zM102.813 116.484H80.936a2.742 2.742 0 0 0-2.734 2.735 2.742 2.742 0 0 0 2.734 2.734h21.876a2.742 2.742 0 0 0 2.734-2.734 2.742 2.742 0 0 0-2.734-2.735z"/>
        </g>
    </g>
</svg>
