<svg xmlns="http://www.w3.org/2000/svg" width="126" height="97" viewBox="0 0 126 97">
    <defs>
        <filter id="a" width="114.7%" height="119.5%" x="-7.3%" y="-7.5%" filterUnits="objectBoundingBox">
            <feOffset dy="2" in="SourceAlpha" result="shadowOffsetOuter1"/>
            <feGaussianBlur in="shadowOffsetOuter1" result="shadowBlurOuter1" stdDeviation="2.5"/>
            <feColorMatrix in="shadowBlurOuter1" result="shadowMatrixOuter1" values="0 0 0 0 0 0 0 0 0 0 0 0 0 0 0 0 0 0 0.356714221 0"/>
            <feMerge>
                <feMergeNode in="shadowMatrixOuter1"/>
                <feMergeNode in="SourceGraphic"/>
            </feMerge>
        </filter>
        <linearGradient id="b" x1="-5.498%" x2="88.861%" y1="22.172%" y2="104.778%">
            <stop offset="0%" stop-color="#FFF"/>
            <stop offset="100%" stop-color="#FFF" stop-opacity="0"/>
        </linearGradient>
        <linearGradient id="c" x1="4.428%" x2="84.941%" y1="31.722%" y2="100.534%">
            <stop offset="0%" stop-color="#FFF" stop-opacity=".2"/>
            <stop offset="100%" stop-color="#FFF" stop-opacity="0"/>
        </linearGradient>
        <linearGradient id="d" x1="-1.205%" x2="89.258%" y1="27.832%" y2="84.101%">
            <stop offset="0%" stop-color="#FFF" stop-opacity=".2"/>
            <stop offset="100%" stop-color="#FFF" stop-opacity="0"/>
        </linearGradient>
    </defs>
    <g fill="none" fill-rule="nonzero" filter="url(#a)" transform="translate(5 3)">
        <path fill="#303C42" d="M115.694 44.74c-9.662-17.295-25.544-27.87-44.16-29.83C62.2 3.122 32.914.135 31.65.012a2.408 2.408 0 0 0-2.157.944 2.409 2.409 0 0 0-.33 2.33c2.871 7.453 5.813 15.93 6.591 19.398-5.318 2.434-9.966 5.021-12.963 7.178-6.5-10.399-19.768-10.528-20.374-10.528A2.415 2.415 0 0 0 0 21.75c0 14.002 4.88 21.03 8.145 24.167C4.88 49.053 0 56.081 0 70.083A2.415 2.415 0 0 0 2.417 72.5c.606 0 13.875-.13 20.374-10.528 3.981 2.865 10.865 6.488 18.388 9.5-1.663 2.689-2.512 6.965-2.512 13.111A2.415 2.415 0 0 0 41.084 87c.718 0 17.152-.143 25.337-9.743 20.814-.402 38.737-11.303 49.273-30.163a2.417 2.417 0 0 0 0-2.355z"/>
        <path fill="#FFF" d="M35 6c8.124 1.142 21.462 3.952 29 8.982-6.95.264-15.818 2.816-23.856 6.018-1.07-4.128-3.446-10.577-5.144-15z"/>
        <path fill="#303C42" d="M46.045 73.014H46l.002-.014z"/>
        <path fill="#FFF" d="M45.29 73c4.674 1.692 9.41 3.037 13.71 3.712-5.203 3.776-12.296 4.95-16 5.288.32-6.881 1.859-8.64 2.29-9z"/>
        <path fill="url(#b)" d="M35 6c8.124 1.142 21.462 3.952 29 8.982-6.95.264-15.818 2.816-23.856 6.018-1.07-4.128-3.446-10.577-5.144-15z"/>
        <path fill="url(#c)" d="M45.29 73c4.674 1.692 9.41 3.037 13.71 3.712-5.203 3.776-12.296 4.95-16 5.288.32-6.881 1.859-8.64 2.29-9z"/>
        <path fill="#FFF" d="M65.41 73C51.273 73 28.161 61.442 23.88 57.08a2.42 2.42 0 0 0-2.17-.685 2.418 2.418 0 0 0-1.78 1.414C16.668 65.349 8.99 67.408 5 67.97c.756-15.097 7.93-19.131 8.299-19.327a2.408 2.408 0 0 0 1.299-2.12A2.428 2.428 0 0 0 13.3 44.36c-.324-.171-7.54-4.178-8.301-19.315 3.987.581 11.693 2.67 14.932 10.147a2.417 2.417 0 0 0 1.778 1.414 2.416 2.416 0 0 0 2.171-.685C28.161 31.558 51.274 20 65.41 20 84.508 20 101.05 29.639 111 46.5 101.05 63.36 84.508 73 65.41 73z"/>
        <path d="M65.41 73C51.273 73 28.161 61.442 23.88 57.08a2.42 2.42 0 0 0-2.17-.685 2.418 2.418 0 0 0-1.78 1.414C16.668 65.349 8.99 67.408 5 67.97c.756-15.097 7.93-19.131 8.299-19.327a2.408 2.408 0 0 0 1.299-2.12A2.428 2.428 0 0 0 13.3 44.36c-.324-.171-7.54-4.178-8.301-19.315 3.987.581 11.693 2.67 14.932 10.147a2.417 2.417 0 0 0 1.778 1.414 2.416 2.416 0 0 0 2.171-.685C28.161 31.558 51.274 20 65.41 20 84.508 20 101.05 29.639 111 46.5 101.05 63.36 84.508 73 65.41 73z"/>
        <path fill="#000" d="M65.409 64.91c-14.135 0-37.248-8.249-41.528-11.361-.458-.334-1.084-.517-1.729-.517-.146 0-.295.01-.442.029-.791.104-1.46.483-1.779 1.008-3.08 5.076-10.05 6.657-14.183 7.157A38.939 38.939 0 0 0 5 67.065c3.99-.552 11.667-2.571 14.932-9.97a2.409 2.409 0 0 1 1.778-1.387 2.443 2.443 0 0 1 2.17.672C28.162 60.66 51.275 72 65.41 72 84.508 72 101.05 62.543 111 46c-9.95 12.031-26.492 18.91-45.591 18.91zM15 46l.011.044.004-.005z" opacity=".1"/>
        <path fill="#FFF" d="M65.41 20C51.273 20 28.161 31.34 23.88 35.62a2.444 2.444 0 0 1-2.17.672 2.41 2.41 0 0 1-1.78-1.388C16.694 27.57 8.989 25.52 5 24.95c.113 2.2.396 4.093.749 5.837 4.134.515 11.127 2.112 14.182 7.145.32.525.988.904 1.78 1.008.798.106 1.608-.078 2.17-.488 4.28-3.113 27.393-11.36 41.528-11.36C84.508 27.09 101.05 33.969 111 46c-9.95-16.543-26.492-26-45.59-26z" opacity=".2"/>
        <g fill="#303C42" transform="translate(58 24)">
            <path d="M14.507 22.038c0-11.19 4.39-18.044 4.434-18.112a2.446 2.446 0 0 0-.685-3.368 2.411 2.411 0 0 0-3.343.677c-.215.323-5.242 8.055-5.242 20.803 0 12.748 5.027 20.48 5.242 20.803a2.41 2.41 0 0 0 3.352.675 2.439 2.439 0 0 0 .671-3.373c-.045-.066-4.43-6.813-4.43-18.105zM8.585.558a2.411 2.411 0 0 0-3.343.677C5.027 1.558 0 9.29 0 22.038c0 6.809 1.46 12.159 2.685 15.448a2.419 2.419 0 0 0 3.112 1.425 2.435 2.435 0 0 0 1.416-3.13c-1.083-2.914-2.377-7.664-2.377-13.743 0-11.19 4.39-18.044 4.434-18.112A2.446 2.446 0 0 0 8.585.558z"/>
            <ellipse cx="29.013" cy="14.742" rx="4.835" ry="4.863"/>
        </g>
        <path fill="url(#d)" d="M115.694 44.74c-9.662-17.295-25.544-27.87-44.16-29.83C62.2 3.122 32.914.135 31.65.012a2.408 2.408 0 0 0-2.157.944 2.409 2.409 0 0 0-.33 2.33c2.871 7.453 5.813 15.93 6.591 19.398-5.318 2.434-9.966 5.021-12.963 7.178-6.5-10.399-19.768-10.528-20.374-10.528A2.415 2.415 0 0 0 0 21.75c0 14.002 4.88 21.03 8.145 24.167C4.88 49.053 0 56.081 0 70.083A2.415 2.415 0 0 0 2.417 72.5c.606 0 13.875-.13 20.374-10.528 3.981 2.865 10.865 6.488 18.388 9.5-1.663 2.689-2.512 6.965-2.512 13.111A2.415 2.415 0 0 0 41.084 87c.718 0 17.152-.143 25.337-9.743 20.814-.402 38.737-11.303 49.273-30.163a2.417 2.417 0 0 0 0-2.355z"/>
    </g>
</svg>
